<svg xmlns="http://www.w3.org/2000/svg" viewBox="0 0 1987 427.2" style="enable-background:new 0 0 1987 427.2" xml:space="preserve"><path d="M549.8-80.7h-13.3c-3.8 0-6.1 2.3-6.1 6V-36c0 14.2-7.8 22.2-18.6 22.2C500.5-13.7 494-21 494-35v-39.6c0-3.7-2.3-6-6.1-6h-13.3c-3.8 0-6.1 2.3-6.1 6v41.5c0 26.4 13.9 41.3 34.7 41.3 12.5 0 22.2-4.1 29-12.5l1.1 5.2c.8 3.4 3 5.2 6.6 5.2h9.7c3.8 0 6.1-2.3 6.1-6v-74.8c.2-3.7-2.1-6-5.9-6zm-92.6 64h-23.9c-8.3 0-12.7-4.3-12.7-12.5v-45.4c0-3.7-2.3-6-6.1-6h-13.7c-3.8 0-6.1 2.3-6.1 6V-26c0 20 12.3 32.2 32.7 32.2h29.8c3.8 0 6.1-2.3 6.1-6v-10.9c0-3.8-2.3-6-6.1-6zM70.4-74.9c-.4-3.9-2.5-5.8-6.3-5.8h-10c-3.2 0-5.5 1.3-7.2 4.1L22.4-35.8-.4-76.5c-1.5-2.8-4-4.1-7.2-4.1h-10.8c-3.8 0-5.9 1.9-6.3 5.8L-31 0c-.4 4.1 1.7 6.2 5.7 6.2h12.2C-9.3 6.2-7 4.3-6.8.4l2.7-41.9 14.6 26c1.5 2.8 4 4.1 7.2 4.1H26c3.2 0 5.5-1.1 7.2-4.1l16.5-27.9L51.6.3c.2 4 2.3 5.8 6.1 5.8h13.1c4 0 6.1-2.1 5.7-6.2l-6.1-74.8zm306.7-5.8h-10.4c-3.6 0-6.1 1.9-6.6 5.4l-.6 4.3c-5.9-6.2-14.4-11.8-28.7-11.8-23.9 0-41.6 18.5-41.6 45.2 0 26.2 16.5 45.6 40 45.6 14.8 0 24.5-6.2 30.4-12.5l1 5.2c.6 3.4 2.9 5.2 6.5 5.2h10.1c3.8 0 6.1-2.3 6.1-6v-74.8c-.1-3.5-2.4-5.8-6.2-5.8zm-40.8 67c-13.5 0-22-9.2-22-23.4 0-14.4 8.9-23.7 22-23.7 13.5 0 22 9.2 22 23.4 0 14.3-8.9 23.7-22 23.7zm-62.2-67h-10.4c-3.6 0-6.1 1.9-6.6 5.4l-.6 4.3c-5.9-6.2-14.4-11.8-28.7-11.8-23.9 0-41.5 17.4-41.5 44.1 0 25.4 16.3 43.4 39.8 43.4 14.6 0 23.3-6 29.2-12.3v4.3c0 15-8.5 24.5-26.6 24.5-7.4 0-14.7-1.5-21.5-4.5-3.6-1.7-6.5-.9-8.2 2.6l-4.2 8.2c-1.7 3.4-1.1 6.2 2.1 8 10.1 5.6 22.4 7.9 34.3 7.9C261 43.4 280 24.9 280-.9v-73.8c.1-3.7-2.1-6-5.9-6zm-40.8 64.2c-13.1 0-22-8.6-22-21.9 0-14 9.3-22.4 22-22.4 13.1 0 22 7.7 22 22.1 0 12.8-9.3 22.2-22 22.2zM171-80.7h-10.4c-3.6 0-6.1 1.9-6.6 5.4l-.6 4.3c-5.9-6.2-14.4-11.8-28.6-11.8-23.9 0-41.6 18.5-41.6 45.2 0 26.2 16.5 45.6 40 45.6 14.8 0 24.5-6.2 30.4-12.5l1 5.2c.6 3.4 2.9 5.2 6.5 5.2h9.9c3.8 0 6.1-2.3 6.1-6v-74.8c0-3.5-2.3-5.8-6.1-5.8zm-40.8 67c-13.5 0-22-9.2-22-23.4 0-14.4 8.9-23.7 22-23.7 13.5 0 22 9.2 22 23.4 0 14.3-8.9 23.7-22 23.7z" style="fill:#0e87fe" transform="matrix(3.38586 0 0 3.38586 104.827 280.06)"/></svg>